<mxfile host="Electron" modified="2023-11-14T08:49:10.001Z" agent="Mozilla/5.0 (Windows NT 10.0; Win64; x64) AppleWebKit/537.36 (KHTML, like Gecko) draw.io/22.0.3 Chrome/114.0.5735.289 Electron/25.8.4 Safari/537.36" etag="oEmcchzed1Nq1l8bF1ub" version="22.0.3" type="device">
  <diagram id="9DZjILo1v3tIHNjK3BG4" name="Page-1">
    <mxGraphModel dx="1711" dy="1258" grid="1" gridSize="10" guides="1" tooltips="1" connect="1" arrows="1" fold="1" page="1" pageScale="1" pageWidth="1600" pageHeight="900" background="none" math="0" shadow="0">
      <root>
        <mxCell id="0" />
        <mxCell id="1" parent="0" />
        <mxCell id="T8JUtustTyk1DMbEt_c7-63" value="" style="group" parent="1" vertex="1" connectable="0">
          <mxGeometry x="810" y="110" width="538" height="340" as="geometry" />
        </mxCell>
        <mxCell id="T8JUtustTyk1DMbEt_c7-30" value="" style="group" parent="T8JUtustTyk1DMbEt_c7-63" vertex="1" connectable="0">
          <mxGeometry x="345" width="60" height="340" as="geometry" />
        </mxCell>
        <mxCell id="T8JUtustTyk1DMbEt_c7-31" value="" style="edgeStyle=orthogonalEdgeStyle;rounded=0;orthogonalLoop=1;jettySize=auto;html=1;strokeColor=#B266FF;strokeWidth=3;" parent="T8JUtustTyk1DMbEt_c7-30" source="T8JUtustTyk1DMbEt_c7-32" target="T8JUtustTyk1DMbEt_c7-34" edge="1">
          <mxGeometry relative="1" as="geometry" />
        </mxCell>
        <mxCell id="T8JUtustTyk1DMbEt_c7-32" value="&lt;font face=&quot;Garamond&quot; style=&quot;&quot;&gt;&lt;i style=&quot;&quot;&gt;&lt;span style=&quot;font-size: 17px;&quot;&gt;W&lt;/span&gt;&lt;span style=&quot;font-size: 12.75px;&quot;&gt;2&lt;/span&gt;&lt;/i&gt;&lt;/font&gt;" style="rounded=1;whiteSpace=wrap;html=1;" parent="T8JUtustTyk1DMbEt_c7-30" vertex="1">
          <mxGeometry width="60" height="60" as="geometry" />
        </mxCell>
        <mxCell id="T8JUtustTyk1DMbEt_c7-33" value="" style="edgeStyle=orthogonalEdgeStyle;rounded=0;orthogonalLoop=1;jettySize=auto;html=1;strokeColor=#B266FF;strokeWidth=3;" parent="T8JUtustTyk1DMbEt_c7-30" source="T8JUtustTyk1DMbEt_c7-34" target="T8JUtustTyk1DMbEt_c7-36" edge="1">
          <mxGeometry relative="1" as="geometry" />
        </mxCell>
        <mxCell id="T8JUtustTyk1DMbEt_c7-34" value="&lt;font face=&quot;Garamond&quot; style=&quot;&quot;&gt;&lt;i style=&quot;&quot;&gt;&lt;span style=&quot;font-size: 17px;&quot;&gt;S&lt;/span&gt;&lt;span style=&quot;font-size: 12.75px;&quot;&gt;2&lt;/span&gt;&lt;/i&gt;&lt;/font&gt;" style="rounded=1;whiteSpace=wrap;html=1;" parent="T8JUtustTyk1DMbEt_c7-30" vertex="1">
          <mxGeometry y="93" width="60" height="60" as="geometry" />
        </mxCell>
        <mxCell id="T8JUtustTyk1DMbEt_c7-35" value="" style="edgeStyle=orthogonalEdgeStyle;rounded=0;orthogonalLoop=1;jettySize=auto;html=1;strokeColor=#B266FF;strokeWidth=3;" parent="T8JUtustTyk1DMbEt_c7-30" source="T8JUtustTyk1DMbEt_c7-36" target="T8JUtustTyk1DMbEt_c7-37" edge="1">
          <mxGeometry relative="1" as="geometry" />
        </mxCell>
        <mxCell id="T8JUtustTyk1DMbEt_c7-36" value="&lt;font face=&quot;Garamond&quot; style=&quot;&quot;&gt;&lt;i style=&quot;&quot;&gt;&lt;span style=&quot;font-size: 17px;&quot;&gt;C&lt;/span&gt;&lt;span style=&quot;font-size: 12.75px;&quot;&gt;2&lt;/span&gt;&lt;/i&gt;&lt;/font&gt;" style="rounded=1;whiteSpace=wrap;html=1;" parent="T8JUtustTyk1DMbEt_c7-30" vertex="1">
          <mxGeometry y="187" width="60" height="60" as="geometry" />
        </mxCell>
        <mxCell id="T8JUtustTyk1DMbEt_c7-37" value="&lt;font face=&quot;Garamond&quot; style=&quot;&quot;&gt;&lt;i style=&quot;&quot;&gt;&lt;span style=&quot;font-size: 17px;&quot;&gt;A&lt;/span&gt;&lt;span style=&quot;font-size: 12.75px;&quot;&gt;2&lt;/span&gt;&lt;/i&gt;&lt;/font&gt;" style="rounded=1;whiteSpace=wrap;html=1;" parent="T8JUtustTyk1DMbEt_c7-30" vertex="1">
          <mxGeometry y="280" width="60" height="60" as="geometry" />
        </mxCell>
        <mxCell id="T8JUtustTyk1DMbEt_c7-38" value="" style="group" parent="T8JUtustTyk1DMbEt_c7-63" vertex="1" connectable="0">
          <mxGeometry x="207" width="60" height="340" as="geometry" />
        </mxCell>
        <mxCell id="T8JUtustTyk1DMbEt_c7-39" value="" style="edgeStyle=orthogonalEdgeStyle;rounded=0;orthogonalLoop=1;jettySize=auto;html=1;strokeColor=#B266FF;strokeWidth=3;" parent="T8JUtustTyk1DMbEt_c7-38" source="T8JUtustTyk1DMbEt_c7-40" target="T8JUtustTyk1DMbEt_c7-42" edge="1">
          <mxGeometry relative="1" as="geometry" />
        </mxCell>
        <mxCell id="T8JUtustTyk1DMbEt_c7-40" value="&lt;font face=&quot;Garamond&quot; style=&quot;font-size: 17px;&quot;&gt;&lt;i&gt;W&lt;sub&gt;1&lt;/sub&gt;&lt;/i&gt;&lt;/font&gt;" style="rounded=1;whiteSpace=wrap;html=1;" parent="T8JUtustTyk1DMbEt_c7-38" vertex="1">
          <mxGeometry width="60" height="60" as="geometry" />
        </mxCell>
        <mxCell id="T8JUtustTyk1DMbEt_c7-41" value="" style="edgeStyle=orthogonalEdgeStyle;rounded=0;orthogonalLoop=1;jettySize=auto;html=1;strokeWidth=3;strokeColor=#B266FF;" parent="T8JUtustTyk1DMbEt_c7-38" source="T8JUtustTyk1DMbEt_c7-42" target="T8JUtustTyk1DMbEt_c7-44" edge="1">
          <mxGeometry relative="1" as="geometry" />
        </mxCell>
        <mxCell id="T8JUtustTyk1DMbEt_c7-42" value="&lt;font face=&quot;Garamond&quot; style=&quot;&quot;&gt;&lt;i style=&quot;&quot;&gt;&lt;sub style=&quot;&quot;&gt;&lt;span style=&quot;font-size: 17px;&quot;&gt;S1&lt;/span&gt;&lt;/sub&gt;&lt;/i&gt;&lt;/font&gt;" style="rounded=1;whiteSpace=wrap;html=1;" parent="T8JUtustTyk1DMbEt_c7-38" vertex="1">
          <mxGeometry y="93" width="60" height="60" as="geometry" />
        </mxCell>
        <mxCell id="T8JUtustTyk1DMbEt_c7-43" value="" style="edgeStyle=orthogonalEdgeStyle;rounded=0;orthogonalLoop=1;jettySize=auto;html=1;strokeColor=#B266FF;strokeWidth=3;" parent="T8JUtustTyk1DMbEt_c7-38" source="T8JUtustTyk1DMbEt_c7-44" target="T8JUtustTyk1DMbEt_c7-45" edge="1">
          <mxGeometry relative="1" as="geometry" />
        </mxCell>
        <mxCell id="T8JUtustTyk1DMbEt_c7-44" value="&lt;font face=&quot;Garamond&quot; style=&quot;&quot;&gt;&lt;i style=&quot;&quot;&gt;&lt;sub style=&quot;&quot;&gt;&lt;span style=&quot;font-size: 17px;&quot;&gt;C1&lt;/span&gt;&lt;/sub&gt;&lt;/i&gt;&lt;/font&gt;" style="rounded=1;whiteSpace=wrap;html=1;" parent="T8JUtustTyk1DMbEt_c7-38" vertex="1">
          <mxGeometry y="187" width="60" height="60" as="geometry" />
        </mxCell>
        <mxCell id="T8JUtustTyk1DMbEt_c7-45" value="&lt;font face=&quot;Garamond&quot; style=&quot;&quot;&gt;&lt;i style=&quot;&quot;&gt;&lt;sub style=&quot;&quot;&gt;&lt;span style=&quot;font-size: 17px;&quot;&gt;A1&lt;/span&gt;&lt;/sub&gt;&lt;/i&gt;&lt;/font&gt;" style="rounded=1;whiteSpace=wrap;html=1;" parent="T8JUtustTyk1DMbEt_c7-38" vertex="1">
          <mxGeometry y="280" width="60" height="60" as="geometry" />
        </mxCell>
        <mxCell id="T8JUtustTyk1DMbEt_c7-46" value="" style="group;opacity=30;" parent="T8JUtustTyk1DMbEt_c7-63" vertex="1" connectable="0">
          <mxGeometry x="478" width="60" height="340" as="geometry" />
        </mxCell>
        <mxCell id="T8JUtustTyk1DMbEt_c7-47" value="" style="group;opacity=30;" parent="T8JUtustTyk1DMbEt_c7-46" vertex="1" connectable="0">
          <mxGeometry width="60" height="340" as="geometry" />
        </mxCell>
        <mxCell id="T8JUtustTyk1DMbEt_c7-48" value="&lt;font face=&quot;Garamond&quot;&gt;&lt;span style=&quot;font-size: 17px;&quot;&gt;&lt;i&gt;...&lt;/i&gt;&lt;/span&gt;&lt;/font&gt;" style="rounded=1;whiteSpace=wrap;html=1;opacity=30;" parent="T8JUtustTyk1DMbEt_c7-47" vertex="1">
          <mxGeometry y="93" width="60" height="60" as="geometry" />
        </mxCell>
        <mxCell id="T8JUtustTyk1DMbEt_c7-49" value="&lt;font face=&quot;Garamond&quot;&gt;&lt;span style=&quot;font-size: 17px;&quot;&gt;&lt;i&gt;...&lt;/i&gt;&lt;/span&gt;&lt;/font&gt;" style="rounded=1;whiteSpace=wrap;html=1;opacity=30;" parent="T8JUtustTyk1DMbEt_c7-47" vertex="1">
          <mxGeometry y="187" width="60" height="60" as="geometry" />
        </mxCell>
        <mxCell id="T8JUtustTyk1DMbEt_c7-50" value="&lt;font face=&quot;Garamond&quot;&gt;&lt;span style=&quot;font-size: 17px;&quot;&gt;&lt;i&gt;...&lt;/i&gt;&lt;/span&gt;&lt;/font&gt;" style="rounded=1;whiteSpace=wrap;html=1;opacity=30;" parent="T8JUtustTyk1DMbEt_c7-47" vertex="1">
          <mxGeometry y="280" width="60" height="60" as="geometry" />
        </mxCell>
        <mxCell id="T8JUtustTyk1DMbEt_c7-51" value="&lt;font face=&quot;Garamond&quot;&gt;&lt;span style=&quot;font-size: 17px;&quot;&gt;&lt;i&gt;...&lt;/i&gt;&lt;/span&gt;&lt;/font&gt;" style="rounded=1;whiteSpace=wrap;html=1;opacity=30;" parent="T8JUtustTyk1DMbEt_c7-47" vertex="1">
          <mxGeometry width="60" height="60" as="geometry" />
        </mxCell>
        <mxCell id="T8JUtustTyk1DMbEt_c7-52" style="edgeStyle=orthogonalEdgeStyle;rounded=0;orthogonalLoop=1;jettySize=auto;html=1;exitX=1;exitY=0.5;exitDx=0;exitDy=0;entryX=0;entryY=0.5;entryDx=0;entryDy=0;curved=1;strokeWidth=3;endSize=16;startArrow=classic;startFill=1;fillColor=#e51400;strokeColor=#B20000;" parent="T8JUtustTyk1DMbEt_c7-63" source="T8JUtustTyk1DMbEt_c7-45" target="T8JUtustTyk1DMbEt_c7-32" edge="1">
          <mxGeometry relative="1" as="geometry" />
        </mxCell>
        <mxCell id="T8JUtustTyk1DMbEt_c7-53" style="edgeStyle=orthogonalEdgeStyle;rounded=0;orthogonalLoop=1;jettySize=auto;html=1;exitX=1;exitY=0.5;exitDx=0;exitDy=0;entryX=0;entryY=0.5;entryDx=0;entryDy=0;curved=1;strokeWidth=3;endSize=16;startArrow=classic;startFill=1;fillColor=#e51400;strokeColor=#B20000;opacity=30;" parent="T8JUtustTyk1DMbEt_c7-63" source="T8JUtustTyk1DMbEt_c7-37" target="T8JUtustTyk1DMbEt_c7-51" edge="1">
          <mxGeometry relative="1" as="geometry" />
        </mxCell>
        <mxCell id="T8JUtustTyk1DMbEt_c7-54" value="" style="group" parent="T8JUtustTyk1DMbEt_c7-63" vertex="1" connectable="0">
          <mxGeometry width="150" height="340" as="geometry" />
        </mxCell>
        <mxCell id="T8JUtustTyk1DMbEt_c7-55" value="&lt;h2&gt;&lt;font face=&quot;Arial&quot; color=&quot;#000000&quot;&gt;&lt;i style=&quot;&quot;&gt;Environment&lt;/i&gt;&lt;/font&gt;&lt;br&gt;&lt;/h2&gt;" style="rounded=1;whiteSpace=wrap;html=1;fillColor=#F9D1D1;strokeColor=#FF0000;strokeWidth=3;" parent="T8JUtustTyk1DMbEt_c7-54" vertex="1">
          <mxGeometry width="150" height="60" as="geometry" />
        </mxCell>
        <mxCell id="T8JUtustTyk1DMbEt_c7-56" value="&lt;h2 style=&quot;line-height: 40%; font-size: 14px;&quot;&gt;&lt;font style=&quot;font-size: 18px;&quot; face=&quot;Arial&quot; color=&quot;#000000&quot;&gt;&lt;i style=&quot;&quot;&gt;&lt;span style=&quot;&quot;&gt;Con&lt;/span&gt;&lt;font style=&quot;font-size: 18px;&quot;&gt;troller&lt;/font&gt;&lt;/i&gt;&lt;/font&gt;&lt;/h2&gt;" style="rounded=1;whiteSpace=wrap;html=1;fillColor=#F9D1D1;strokeColor=#FF0000;strokeWidth=3;" parent="T8JUtustTyk1DMbEt_c7-54" vertex="1">
          <mxGeometry y="187" width="150" height="60" as="geometry" />
        </mxCell>
        <mxCell id="T8JUtustTyk1DMbEt_c7-57" value="&lt;h2 style=&quot;line-height: 40%;&quot;&gt;&lt;font face=&quot;Arial&quot; color=&quot;#000000&quot;&gt;&lt;i style=&quot;&quot;&gt;Sensors&lt;/i&gt;&lt;/font&gt;&lt;/h2&gt;" style="rounded=1;whiteSpace=wrap;html=1;fillColor=#F9EFD1;strokeColor=#FFAA00;strokeWidth=3;" parent="T8JUtustTyk1DMbEt_c7-54" vertex="1">
          <mxGeometry y="93" width="150" height="60" as="geometry" />
        </mxCell>
        <mxCell id="T8JUtustTyk1DMbEt_c7-58" value="&lt;h2 style=&quot;line-height: 40%;&quot;&gt;&lt;font face=&quot;Arial&quot;&gt;&lt;font color=&quot;#000000&quot;&gt;&lt;i style=&quot;&quot;&gt;Actuators&lt;/i&gt;&lt;/font&gt;&lt;/font&gt;&lt;/h2&gt;" style="rounded=1;whiteSpace=wrap;html=1;fillColor=#E8D1F9;strokeColor=#9400FF;strokeWidth=3;" parent="T8JUtustTyk1DMbEt_c7-54" vertex="1">
          <mxGeometry y="280" width="150" height="60" as="geometry" />
        </mxCell>
        <mxCell id="T8JUtustTyk1DMbEt_c7-59" value="" style="edgeStyle=orthogonalEdgeStyle;rounded=0;orthogonalLoop=1;jettySize=auto;html=1;" parent="T8JUtustTyk1DMbEt_c7-63" source="T8JUtustTyk1DMbEt_c7-55" target="T8JUtustTyk1DMbEt_c7-40" edge="1">
          <mxGeometry relative="1" as="geometry" />
        </mxCell>
        <mxCell id="T8JUtustTyk1DMbEt_c7-60" value="" style="edgeStyle=orthogonalEdgeStyle;rounded=0;orthogonalLoop=1;jettySize=auto;html=1;" parent="T8JUtustTyk1DMbEt_c7-63" source="T8JUtustTyk1DMbEt_c7-57" target="T8JUtustTyk1DMbEt_c7-42" edge="1">
          <mxGeometry relative="1" as="geometry" />
        </mxCell>
        <mxCell id="T8JUtustTyk1DMbEt_c7-61" value="" style="edgeStyle=orthogonalEdgeStyle;rounded=0;orthogonalLoop=1;jettySize=auto;html=1;" parent="T8JUtustTyk1DMbEt_c7-63" source="T8JUtustTyk1DMbEt_c7-56" target="T8JUtustTyk1DMbEt_c7-44" edge="1">
          <mxGeometry relative="1" as="geometry" />
        </mxCell>
        <mxCell id="T8JUtustTyk1DMbEt_c7-62" value="" style="edgeStyle=orthogonalEdgeStyle;rounded=0;orthogonalLoop=1;jettySize=auto;html=1;" parent="T8JUtustTyk1DMbEt_c7-63" source="T8JUtustTyk1DMbEt_c7-58" target="T8JUtustTyk1DMbEt_c7-45" edge="1">
          <mxGeometry relative="1" as="geometry" />
        </mxCell>
        <mxCell id="T8JUtustTyk1DMbEt_c7-64" value="" style="group" parent="1" vertex="1" connectable="0">
          <mxGeometry x="95" y="80" width="660" height="400" as="geometry" />
        </mxCell>
        <mxCell id="18" value="" style="rounded=1;whiteSpace=wrap;html=1;strokeColor=#7FEF75;strokeWidth=5;fontFamily=Helvetica;fillColor=#EAF9EA;fontColor=#eaf9ea;" parent="T8JUtustTyk1DMbEt_c7-64" vertex="1">
          <mxGeometry y="190" width="660" height="210" as="geometry" />
        </mxCell>
        <mxCell id="23" value="&lt;h1&gt;World&lt;/h1&gt;" style="text;strokeColor=none;align=center;fillColor=none;html=1;verticalAlign=middle;whiteSpace=wrap;rounded=0;labelBackgroundColor=#eaf9ea;labelBorderColor=none;strokeWidth=5;fontFamily=Helvetica;fontColor=#000000;" parent="T8JUtustTyk1DMbEt_c7-64" vertex="1">
          <mxGeometry x="70" y="345" width="60" height="30" as="geometry" />
        </mxCell>
        <mxCell id="17" value="" style="rounded=1;whiteSpace=wrap;html=1;strokeColor=#C675EF;strokeWidth=5;fontFamily=Helvetica;fontColor=#000000;fillColor=#F5EDF7;" parent="T8JUtustTyk1DMbEt_c7-64" vertex="1">
          <mxGeometry x="30" width="600" height="270" as="geometry" />
        </mxCell>
        <mxCell id="2" value="&lt;h2 style=&quot;line-height: 40%; font-size: 14px;&quot;&gt;&lt;font style=&quot;font-size: 18px;&quot; face=&quot;Arial&quot; color=&quot;#000000&quot;&gt;&lt;i style=&quot;&quot;&gt;&lt;span style=&quot;&quot;&gt;Con&lt;/span&gt;&lt;font style=&quot;font-size: 18px;&quot;&gt;troller&lt;/font&gt;&lt;/i&gt;&lt;/font&gt;&lt;/h2&gt;&lt;div style=&quot;line-height: 40%; font-size: 14px;&quot;&gt;&lt;font style=&quot;font-size: 14px;&quot; face=&quot;Arial&quot; color=&quot;#000000&quot;&gt;&lt;i style=&quot;&quot;&gt;&lt;b style=&quot;&quot;&gt;Decision Making&lt;/b&gt;&lt;/i&gt;&lt;/font&gt;&lt;br&gt;&lt;/div&gt;" style="rounded=1;whiteSpace=wrap;html=1;fillColor=#F9D1D1;strokeColor=#FF0000;strokeWidth=3;" parent="T8JUtustTyk1DMbEt_c7-64" vertex="1">
          <mxGeometry x="270" y="50" width="120" height="60" as="geometry" />
        </mxCell>
        <mxCell id="5" value="&lt;h2&gt;&lt;font face=&quot;Arial&quot; color=&quot;#000000&quot;&gt;&lt;i style=&quot;&quot;&gt;Environment&lt;/i&gt;&lt;/font&gt;&lt;br&gt;&lt;/h2&gt;" style="rounded=1;whiteSpace=wrap;html=1;fillColor=#F9D1D1;strokeColor=#FF0000;strokeWidth=3;" parent="T8JUtustTyk1DMbEt_c7-64" vertex="1">
          <mxGeometry x="257.5" y="330" width="145" height="60" as="geometry" />
        </mxCell>
        <mxCell id="12" style="edgeStyle=orthogonalEdgeStyle;html=1;exitX=0.5;exitY=1;exitDx=0;exitDy=0;entryX=1;entryY=0.5;entryDx=0;entryDy=0;fontFamily=Verdana;curved=1;strokeWidth=3;strokeColor=#000000;" parent="T8JUtustTyk1DMbEt_c7-64" source="7" target="5" edge="1">
          <mxGeometry relative="1" as="geometry" />
        </mxCell>
        <mxCell id="30" value="&lt;span style=&quot;color: rgb(34, 34, 34);&quot;&gt;&lt;font style=&quot;font-size: 18px;&quot; face=&quot;Arial&quot;&gt;Movement&lt;br&gt;Proprioception&lt;/font&gt;&lt;/span&gt;" style="edgeLabel;html=1;align=center;verticalAlign=middle;resizable=0;points=[];fontSize=18;fontFamily=Helvetica;fontColor=#000000;labelBackgroundColor=#eaf9ea;" parent="12" vertex="1" connectable="0">
          <mxGeometry x="-0.4167" y="-19" relative="1" as="geometry">
            <mxPoint as="offset" />
          </mxGeometry>
        </mxCell>
        <mxCell id="7" value="&lt;h2 style=&quot;line-height: 40%;&quot;&gt;&lt;font face=&quot;Arial&quot;&gt;&lt;font color=&quot;#000000&quot;&gt;&lt;i style=&quot;&quot;&gt;Actuators&lt;/i&gt;&lt;/font&gt;&lt;br&gt;&lt;/font&gt;&lt;/h2&gt;&lt;div style=&quot;line-height: 40%;&quot;&gt;&lt;font color=&quot;#000000&quot;&gt;&lt;i style=&quot;&quot;&gt;&lt;b style=&quot;&quot;&gt;&lt;font style=&quot;font-size: 14px;&quot; face=&quot;Arial&quot;&gt;Acion&lt;/font&gt;&lt;/b&gt;&lt;br&gt;&lt;/i&gt;&lt;/font&gt;&lt;/div&gt;" style="rounded=1;whiteSpace=wrap;html=1;fillColor=#E8D1F9;strokeColor=#9400FF;strokeWidth=3;" parent="T8JUtustTyk1DMbEt_c7-64" vertex="1">
          <mxGeometry x="470" y="190" width="120" height="60" as="geometry" />
        </mxCell>
        <mxCell id="11" style="edgeStyle=orthogonalEdgeStyle;html=1;exitX=1;exitY=0.5;exitDx=0;exitDy=0;entryX=0.5;entryY=0;entryDx=0;entryDy=0;fontFamily=Verdana;elbow=vertical;curved=1;strokeWidth=3;strokeColor=#000000;" parent="T8JUtustTyk1DMbEt_c7-64" source="2" target="7" edge="1">
          <mxGeometry relative="1" as="geometry" />
        </mxCell>
        <mxCell id="19" value="&lt;span style=&quot;color: rgb(34, 34, 34); font-size: 18px; background-color: rgb(245, 237, 247);&quot;&gt;&lt;font style=&quot;font-size: 18px;&quot; face=&quot;Arial&quot;&gt;Motor&lt;br&gt;Preparation&lt;/font&gt;&lt;/span&gt;" style="edgeLabel;html=1;align=center;verticalAlign=middle;resizable=0;points=[];fontFamily=Helvetica;fontColor=#000000;labelBackgroundColor=#f5edf7;labelBorderColor=none;rotation=0;horizontal=1;" parent="11" vertex="1" connectable="0">
          <mxGeometry x="0.3849" y="-31" relative="1" as="geometry">
            <mxPoint x="16" y="22" as="offset" />
          </mxGeometry>
        </mxCell>
        <mxCell id="14" style="edgeStyle=orthogonalEdgeStyle;html=1;exitX=0.5;exitY=0;exitDx=0;exitDy=0;entryX=0;entryY=0.5;entryDx=0;entryDy=0;fontFamily=Verdana;curved=1;strokeWidth=3;strokeColor=#000000;" parent="T8JUtustTyk1DMbEt_c7-64" source="9" target="2" edge="1">
          <mxGeometry relative="1" as="geometry" />
        </mxCell>
        <mxCell id="24" value="&lt;span style=&quot;color: rgb(34, 34, 34); font-size: 18px;&quot;&gt;&lt;font style=&quot;font-size: 18px;&quot; face=&quot;Arial&quot;&gt;Evidence&lt;br&gt;Accumulation&lt;/font&gt;&lt;/span&gt;" style="edgeLabel;html=1;align=center;verticalAlign=middle;resizable=0;points=[];fontFamily=Helvetica;fontColor=#000000;labelBackgroundColor=#f5edf7;" parent="14" vertex="1" connectable="0">
          <mxGeometry x="-0.7253" y="-3" relative="1" as="geometry">
            <mxPoint x="22" y="-21" as="offset" />
          </mxGeometry>
        </mxCell>
        <mxCell id="9" value="&lt;h2 style=&quot;line-height: 40%;&quot;&gt;&lt;font face=&quot;Arial&quot; color=&quot;#000000&quot;&gt;&lt;i style=&quot;&quot;&gt;Sensors&lt;/i&gt;&lt;/font&gt;&lt;/h2&gt;&lt;div style=&quot;line-height: 40%;&quot;&gt;&lt;font color=&quot;#000000&quot;&gt;&lt;i style=&quot;&quot;&gt;&lt;b style=&quot;&quot;&gt;&lt;font style=&quot;font-size: 14px;&quot; face=&quot;Arial&quot;&gt;Perception&lt;/font&gt;&lt;/b&gt;&lt;br&gt;&lt;/i&gt;&lt;/font&gt;&lt;/div&gt;" style="rounded=1;whiteSpace=wrap;html=1;fillColor=#F9EFD1;strokeColor=#FFAA00;strokeWidth=3;" parent="T8JUtustTyk1DMbEt_c7-64" vertex="1">
          <mxGeometry x="70" y="190" width="120" height="60" as="geometry" />
        </mxCell>
        <mxCell id="13" style="edgeStyle=orthogonalEdgeStyle;html=1;exitX=0;exitY=0.5;exitDx=0;exitDy=0;entryX=0.5;entryY=1;entryDx=0;entryDy=0;fontFamily=Verdana;strokeWidth=3;curved=1;strokeColor=#000000;" parent="T8JUtustTyk1DMbEt_c7-64" source="5" target="9" edge="1">
          <mxGeometry relative="1" as="geometry" />
        </mxCell>
        <mxCell id="29" value="&lt;span style=&quot;color: rgb(34, 34, 34);&quot;&gt;&lt;font style=&quot;font-size: 18px;&quot; face=&quot;Arial&quot;&gt;Sensory&lt;br&gt;Stimulation&lt;/font&gt;&lt;/span&gt;" style="edgeLabel;html=1;align=center;verticalAlign=middle;resizable=0;points=[];fontSize=18;fontFamily=Helvetica;fontColor=#000000;labelBackgroundColor=#eaf9ea;" parent="13" vertex="1" connectable="0">
          <mxGeometry x="0.4209" y="-22" relative="1" as="geometry">
            <mxPoint as="offset" />
          </mxGeometry>
        </mxCell>
        <mxCell id="22" value="&lt;h1&gt;Agent(Cognition)&lt;/h1&gt;" style="text;strokeColor=none;align=center;fillColor=none;html=1;verticalAlign=middle;whiteSpace=wrap;rounded=0;labelBackgroundColor=#f5edf7;labelBorderColor=none;strokeWidth=5;fontFamily=Helvetica;fontColor=#000000;" parent="T8JUtustTyk1DMbEt_c7-64" vertex="1">
          <mxGeometry x="130" y="20" width="60" height="30" as="geometry" />
        </mxCell>
        <mxCell id="T8JUtustTyk1DMbEt_c7-65" value="&lt;h2&gt;&lt;b&gt;&lt;font style=&quot;font-size: 24px;&quot; color=&quot;#000000&quot;&gt;a&lt;/font&gt;&lt;/b&gt;&lt;/h2&gt;" style="text;html=1;strokeColor=none;fillColor=none;align=center;verticalAlign=middle;whiteSpace=wrap;rounded=0;" parent="T8JUtustTyk1DMbEt_c7-64" vertex="1">
          <mxGeometry x="-15" width="60" height="30" as="geometry" />
        </mxCell>
        <mxCell id="T8JUtustTyk1DMbEt_c7-67" value="&lt;h2&gt;&lt;b&gt;&lt;font style=&quot;font-size: 24px;&quot; color=&quot;#000000&quot;&gt;b&lt;/font&gt;&lt;/b&gt;&lt;/h2&gt;" style="text;html=1;strokeColor=none;fillColor=none;align=center;verticalAlign=middle;whiteSpace=wrap;rounded=0;" parent="1" vertex="1">
          <mxGeometry x="757" y="80" width="60" height="30" as="geometry" />
        </mxCell>
      </root>
    </mxGraphModel>
  </diagram>
</mxfile>
